<?xml version="1.0" encoding="UTF-8" standalone="no"?>
<!-- Created with Inkscape (http://www.inkscape.org/) -->

<svg
   width="15.809396mm"
   height="48.589535mm"
   viewBox="0 0 15.809396 48.589535"
   version="1.1"
   id="svg1"
   xml:space="preserve"
   inkscape:version="1.3.2 (091e20e, 2023-11-25, custom)"
   sodipodi:docname="logo-simple.svg"
   inkscape:export-filename="logo-simple.png"
   inkscape:export-xdpi="300"
   inkscape:export-ydpi="300"
   xmlns:inkscape="http://www.inkscape.org/namespaces/inkscape"
   xmlns:sodipodi="http://sodipodi.sourceforge.net/DTD/sodipodi-0.dtd"
   xmlns="http://www.w3.org/2000/svg"
   xmlns:svg="http://www.w3.org/2000/svg"><sodipodi:namedview
     id="namedview1"
     pagecolor="#ffffff"
     bordercolor="#666666"
     borderopacity="1.0"
     inkscape:showpageshadow="2"
     inkscape:pageopacity="0.0"
     inkscape:pagecheckerboard="0"
     inkscape:deskcolor="#d1d1d1"
     inkscape:document-units="mm"
     inkscape:zoom="4.6791065"
     inkscape:cx="102.36997"
     inkscape:cy="165.95049"
     inkscape:window-width="3840"
     inkscape:window-height="2071"
     inkscape:window-x="-9"
     inkscape:window-y="-9"
     inkscape:window-maximized="1"
     inkscape:current-layer="layer1" /><defs
     id="defs1"><linearGradient
       id="icon-fhir-a"
       x1="176.20142"
       x2="176.20142"
       y1="294.65182"
       y2="21.586063"
       gradientTransform="scale(0.6196197,1.6138932)"
       gradientUnits="userSpaceOnUse"><stop
         offset="0%"
         stop-color="#FFF"
         id="stop1" /><stop
         offset="4%"
         stop-color="#FFF7BC"
         id="stop2" /><stop
         offset="8%"
         stop-color="#FFF083"
         id="stop3" /><stop
         offset="12%"
         stop-color="#FFEB54"
         id="stop4" /><stop
         offset="15%"
         stop-color="#FFE72F"
         id="stop5" /><stop
         offset="19%"
         stop-color="#FFE415"
         id="stop6" /><stop
         offset="22%"
         stop-color="#FFE206"
         id="stop7" /><stop
         offset="24%"
         stop-color="#FFE100"
         id="stop8" /><stop
         offset="28%"
         stop-color="#FFDA00"
         id="stop9" /><stop
         offset="34%"
         stop-color="#FAC600"
         id="stop10" /><stop
         offset="42%"
         stop-color="#F2A200"
         id="stop11" /><stop
         offset="52%"
         stop-color="#E86A14"
         id="stop12" /><stop
         offset="62%"
         stop-color="#DE1119"
         id="stop13" /><stop
         offset="100%"
         stop-color="#E20E18"
         id="stop14" /></linearGradient><linearGradient
       id="icon-fhir-b"
       x1="84.081657"
       x2="84.081657"
       y1="2922.7175"
       y2="2710.0154"
       gradientTransform="scale(0.64106078,1.5599145)"
       gradientUnits="userSpaceOnUse"><stop
         offset="0%"
         stop-color="#FFF"
         id="stop15" /><stop
         offset="4%"
         stop-color="#FFF7BC"
         id="stop16" /><stop
         offset="8%"
         stop-color="#FFF083"
         id="stop17" /><stop
         offset="12%"
         stop-color="#FFEB54"
         id="stop18" /><stop
         offset="15%"
         stop-color="#FFE72F"
         id="stop19" /><stop
         offset="19%"
         stop-color="#FFE415"
         id="stop20" /><stop
         offset="22%"
         stop-color="#FFE206"
         id="stop21" /><stop
         offset="24%"
         stop-color="#FFE100"
         id="stop22" /><stop
         offset="28%"
         stop-color="#FFDA00"
         id="stop23" /><stop
         offset="34%"
         stop-color="#FAC600"
         id="stop24" /><stop
         offset="42%"
         stop-color="#F2A200"
         id="stop25" /><stop
         offset="52%"
         stop-color="#E86A14"
         id="stop26" /><stop
         offset="62%"
         stop-color="#DE1119"
         id="stop27" /><stop
         offset="100%"
         stop-color="#E20E18"
         id="stop28" /></linearGradient><linearGradient
       id="icon-fhir-c"
       x1="259.00879"
       x2="259.00879"
       y1="3430.6072"
       y2="3090.5737"
       gradientTransform="scale(0.72414794,1.3809333)"
       gradientUnits="userSpaceOnUse"><stop
         offset="0%"
         stop-color="#FFF"
         id="stop29" /><stop
         offset="4%"
         stop-color="#FFF7BC"
         id="stop30" /><stop
         offset="8%"
         stop-color="#FFF083"
         id="stop31" /><stop
         offset="12%"
         stop-color="#FFEB54"
         id="stop32" /><stop
         offset="15%"
         stop-color="#FFE72F"
         id="stop33" /><stop
         offset="19%"
         stop-color="#FFE415"
         id="stop34" /><stop
         offset="22%"
         stop-color="#FFE206"
         id="stop35" /><stop
         offset="24%"
         stop-color="#FFE100"
         id="stop36" /><stop
         offset="28%"
         stop-color="#FFDA00"
         id="stop37" /><stop
         offset="34%"
         stop-color="#FAC600"
         id="stop38" /><stop
         offset="42%"
         stop-color="#F2A200"
         id="stop39" /><stop
         offset="52%"
         stop-color="#E86A14"
         id="stop40" /><stop
         offset="62%"
         stop-color="#DE1119"
         id="stop41" /><stop
         offset="100%"
         stop-color="#E20E18"
         id="stop42" /></linearGradient><linearGradient
       id="icon-fhir-d"
       x1="240.29868"
       x2="240.29868"
       y1="269.59125"
       y2="124.75546"
       gradientTransform="scale(0.68416744,1.4616305)"
       gradientUnits="userSpaceOnUse"><stop
         offset="0%"
         stop-color="#FFFCEE"
         id="stop43" /><stop
         offset="64%"
         stop-color="#FFE62E"
         id="stop44" /><stop
         offset="75%"
         stop-color="#FFE300"
         id="stop45" /><stop
         offset="81%"
         stop-color="#FFE100"
         id="stop46" /><stop
         offset="85%"
         stop-color="#FFDB00"
         id="stop47" /><stop
         offset="89%"
         stop-color="#FFD000"
         id="stop48" /><stop
         offset="92%"
         stop-color="#FCC000"
         id="stop49" /><stop
         offset="95%"
         stop-color="#F7AA00"
         id="stop50" /><stop
         offset="98%"
         stop-color="#F18E00"
         id="stop51" /><stop
         offset="100%"
         stop-color="#EC7503"
         id="stop52" /></linearGradient><linearGradient
       id="icon-fhir-e"
       x1="199.94214"
       x2="199.94214"
       y1="216.42632"
       y2="-60.711876"
       gradientTransform="scale(0.59062443,1.6931233)"
       gradientUnits="userSpaceOnUse"><stop
         offset="0%"
         stop-color="#FFF"
         id="stop53" /><stop
         offset="4%"
         stop-color="#FFF8BC"
         id="stop54" /><stop
         offset="8%"
         stop-color="#FFF183"
         id="stop55" /><stop
         offset="12%"
         stop-color="#FFEC54"
         id="stop56" /><stop
         offset="15%"
         stop-color="#FFE82F"
         id="stop57" /><stop
         offset="19%"
         stop-color="#FFE515"
         id="stop58" /><stop
         offset="22%"
         stop-color="#FFE406"
         id="stop59" /><stop
         offset="24%"
         stop-color="#FFE300"
         id="stop60" /><stop
         offset="28%"
         stop-color="#FFDB00"
         id="stop61" /><stop
         offset="34%"
         stop-color="#FDC700"
         id="stop62" /><stop
         offset="42%"
         stop-color="#F4A200"
         id="stop63" /><stop
         offset="52%"
         stop-color="#E96A13"
         id="stop64" /><stop
         offset="62%"
         stop-color="#DE1119"
         id="stop65" /><stop
         offset="100%"
         stop-color="#E20E18"
         id="stop66" /></linearGradient><linearGradient
       id="icon-fhir-f"
       x1="222.00179"
       x2="222.00179"
       y1="207.9608"
       y2="28.662926"
       gradientTransform="scale(0.57192901,1.7484687)"
       gradientUnits="userSpaceOnUse"><stop
         offset="0%"
         stop-color="#FFFCEE"
         id="stop67" /><stop
         offset="58%"
         stop-color="#FFE62E"
         id="stop68" /><stop
         offset="69%"
         stop-color="#FFE300"
         id="stop69" /><stop
         offset="82%"
         stop-color="#FDC200"
         id="stop70" /><stop
         offset="94%"
         stop-color="#F7A400"
         id="stop71" /><stop
         offset="100%"
         stop-color="#F49800"
         id="stop72" /></linearGradient></defs><g
     inkscape:label="Layer 1"
     inkscape:groupmode="layer"
     id="layer1"
     transform="translate(-73.444868,-40.60477)"><g
       id="g2"
       transform="matrix(0.73044361,0,0,0.81597312,21.879218,14.130347)"><ellipse
         style="fill:#4c28cb;stroke-width:0.264583"
         id="path1-5"
         cx="81.167801"
         cy="88.314659"
         rx="9.1962843"
         ry="3.6785135" /><rect
         style="fill:#4c28cb;stroke-width:0.265452"
         id="rect1"
         width="18.352585"
         height="23.510502"
         x="71.99276"
         y="65.093697" /><ellipse
         style="fill:#7153dd;fill-opacity:1;stroke-width:0.264583"
         id="path1"
         cx="81.167198"
         cy="65.253639"
         rx="9.1962843"
         ry="3.6785135" /></g><g
       id="g1"
       transform="translate(29.149306,8.8783637)"><ellipse
         style="fill:#000000;fill-opacity:1;stroke-width:0.0204286"
         id="path1-5-1"
         cx="51.90255"
         cy="58.648495"
         rx="0.57334822"
         ry="0.35173854" /><rect
         style="fill:#000000;fill-opacity:1;stroke:#000000;stroke-width:0.0204957;stroke-opacity:1"
         id="rect1-8"
         width="1.1442037"
         height="2.2480683"
         x="51.330524"
         y="56.428112" /><ellipse
         style="fill:#000000;fill-opacity:1;stroke-width:0.0204286"
         id="path1-6"
         cx="51.902512"
         cy="56.443405"
         rx="0.57334822"
         ry="0.35173854" /></g><g
       fill="none"
       transform="matrix(0.05994218,0,0,0.05994218,73.417095,40.583406)"
       id="g78"><path
         fill="url(#icon-fhir-a)"
         d="m 149.45501,0.35641094 c 0,0 42.93716,67.13901306 35.46983,133.36456906 -7.46733,66.22556 -53.20474,97.00902 -76.07345,147.97987 -22.868705,50.97084 -9.334166,104.13398 9.33417,117.83582 C 93.450017,382.181 28.110858,349.75332 32.777941,263.88846 35.111482,237.39823 51.91298,189.4418 92.049892,143.31227 132.1868,97.182743 158.78918,78.000168 149.45501,0.35641094 Z"
         id="path72"
         style="fill:url(#icon-fhir-a)" /><path
         fill="url(#icon-fhir-b)"
         d="m 60.15494,353.20324 c 0,0 -56.8529436,-41.70132 -59.47692567,-104.2533 C -1.5086374,221.30015 12.923264,179.14555 47.909691,146.96301 87.706752,110.24772 99.07734,102.54204 107.38662,93.023256 84.208109,121.5796 33.91512,176.87917 26.043174,224.47307 19.331116,270.45258 31.725738,317.2271 60.15494,353.20324 Z"
         id="path73"
         style="fill:url(#icon-fhir-b)" /><path
         fill="url(#icon-fhir-c)"
         d="m 131.95817,399.53667 c 0,0 -39.095586,-55.29186 -10.61856,-114.76546 9.65324,-18.12086 43.92221,-57.61505 60.3327,-93.85677 16.41049,-36.24172 19.78912,-58.07969 18.8238,-83.63475 25.58106,33.91854 66.12463,134.74487 19.78912,212.80397 14.47985,-8.82812 36.19962,-28.34289 43.9222,-49.71621 -3.86129,43.02543 -24.13308,123.87235 -132.24926,129.16922 z"
         id="path74"
         style="fill:url(#icon-fhir-c)" /><path
         fill="url(#icon-fhir-d)"
         d="m 135.7681,395.97256 c 0,0 -25.94245,-43.76046 3.49225,-87.05037 23.44798,-35.29069 48.39264,-42.34883 62.36165,-80.46278 2.49446,39.99612 0.99778,92.69688 -35.42142,136.92788 13.5391,-2.22243 26.34709,-7.37662 37.41699,-15.05736 -8.98008,17.12775 -24.94466,38.58449 -67.84947,45.64263 z"
         id="path75"
         style="fill:url(#icon-fhir-d)" /><path
         fill="url(#icon-fhir-e)"
         d="m 103.58869,381.71612 c 0,0 -71.061145,-78.99343 -21.270004,-159.87891 34.805454,-58.18079 79.279094,-61.9649 88.947284,-146.634501 0,61.018871 6.76773,91.291801 -46.89069,159.405891 -35.288866,44.65257 -43.506821,105.00923 -20.78659,147.10752 z"
         id="path76"
         style="fill:url(#icon-fhir-e)" /><path
         fill="url(#icon-fhir-f)"
         d="m 186.34632,0.35641094 c 0,0 18.84257,55.13634306 -37.68514,134.16509906 C 107.29943,191.9552 25.95467,277.41654 112.35476,381.71612 77.427062,345.41803 43.418517,282.4707 81.103662,207.57717 115.80157,140.03515 199.21442,96.10986 186.34632,0.35641094 Z"
         id="path77"
         style="fill:url(#icon-fhir-f)" /><path
         fill="#e02726"
         d="m 225.36371,66.182697 c -0.72745,0.617716 -1.66446,0.930723 -2.61626,0.873953 h -2.18021 v -5.243722 h 3.92438 c 0.33056,0.04618 0.63689,0.199675 0.87209,0.436977 0.43604,0.436977 0.43604,0.436977 0.43604,0.873954 v 1.048744 c 0.39672,0.738785 0.2137,1.655841 -0.43604,2.184884 m 8.2848,11.361398 -1.30812,-3.495815 c -0.48565,-1.071523 -1.06955,-2.095532 -1.74417,-3.058838 -0.65906,-0.773866 -1.60305,-1.246873 -2.61626,-1.31093 1.48141,-0.358749 2.83781,-1.113915 3.92438,-2.184884 0.87948,-1.118414 1.3421,-2.509245 1.30813,-3.932792 -0.0264,-1.077343 -0.32655,-2.130138 -0.87208,-3.058838 -0.49344,-0.929598 -1.2526,-1.690384 -2.18021,-2.184884 -0.98181,-0.515992 -2.00235,-0.954303 -3.0523,-1.31093 -1.27535,-0.360401 -2.60119,-0.508032 -3.92438,-0.436977 h -7.41272 c -0.81676,-0.02445 -1.60738,0.289962 -2.18517,0.868991 -0.57779,0.579028 -0.89153,1.371342 -0.86713,2.189847 v 19.22698 c 0.0405,0.464798 0.40828,0.833312 0.87208,0.873954 1.00039,0.247095 2.02289,0.39348 3.0523,0.436977 1.30813,0 2.18021,0 2.61625,-0.436977 0.43605,-0.436977 0.43605,-0.436977 0.43605,-0.873954 v -6.991629 h 1.30812 c 0.75536,-0.113982 1.52671,0.04062 2.18022,0.436977 0.61272,0.77361 1.05819,1.666469 1.30812,2.621861 l 0.87209,3.932791 c 0,0.436977 0,0.436977 0.43604,0.873954 l 0.43604,0.436977 c 0.47932,-0.05782 0.95929,0.102513 1.30813,0.436977 h 5.66855 c 0.43604,0 0.43604,0 0.43604,-0.436977 v -0.436977 c 0.4409,-0.661282 0.4409,-1.523602 0,-2.184884 m 5.23251,-1.310931 c -0.63504,2.047882 -1.84627,3.868621 -3.48834,5.243722 -1.37216,1.64558 -3.189,2.859406 -5.2325,3.495815 -2.2164,0.894264 -4.58757,1.339811 -6.97668,1.31093 -2.25206,0.07598 -4.49098,-0.372766 -6.54064,-1.31093 -1.96161,-0.799638 -3.74149,-1.988768 -5.23251,-3.495815 -1.41297,-1.72734 -2.58638,-3.638218 -3.48834,-5.680698 -0.89235,-2.221145 -1.33694,-4.597396 -1.30813,-6.99163 0.0112,-2.248873 0.45538,-4.474447 1.30813,-6.554652 0.63505,-2.047882 1.84628,-3.868621 3.48834,-5.243722 1.37216,-1.64558 3.18901,-2.859406 5.23251,-3.495815 2.21639,-0.894264 4.58756,-1.339811 6.97668,-1.31093 2.24813,-0.03091 4.47729,0.41588 6.54064,1.31093 1.96161,0.799638 3.74149,1.988768 5.2325,3.495815 1.41297,1.727341 2.58638,3.638219 3.48834,5.680699 0.89236,2.221144 1.33695,4.597395 1.30813,6.991629 l -1.30813,6.554652 m 6.1046,-16.168142 c -1.18111,-2.723253 -2.80161,-5.233027 -4.79647,-7.428606 -2.11792,-2.09212 -4.64055,-3.727906 -7.41272,-4.806745 -3.1189,-0.893174 -6.34927,-1.334622 -9.59293,-1.310931 -3.13994,-0.05666 -6.2576,0.538458 -9.15689,1.747907 -2.77218,1.07884 -5.2948,2.714626 -7.41273,4.806745 -2.22996,2.00435 -3.88576,4.568788 -4.79646,7.428606 -1.28618,2.881098 -1.88342,6.023324 -1.74417,9.176514 -0.13925,3.15319 0.45799,6.295416 1.74417,9.176513 1.18111,2.723253 2.8016,5.233027 4.79646,7.428606 2.11793,2.09212 4.64055,3.727906 7.41273,4.806745 2.88757,1.248164 6.01365,1.844883 9.15689,1.747908 3.13993,0.05665 6.2576,-0.538458 9.15689,-1.747908 2.77217,-1.078839 5.2948,-2.714625 7.41272,-4.806745 2.22997,-2.00435 3.88576,-4.568787 4.79647,-7.428606 1.28618,-2.881097 1.88342,-6.023323 1.74416,-9.176513 0.3053,-3.262624 -0.14228,-6.551905 -1.30812,-9.61349"
         id="path78" /></g></g></svg>
